<svg xml:space="preserve" viewBox="0 71.6587008 514.048 370.688" xmlns:xlink="http://www.w3.org/1999/xlink" xmlns="http://www.w3.org/2000/svg" id="Layer_1" version="1.1" fill="#000000" style="max-height: 500px" width="514.048" height="370.688">
<g>
	<g>
		<path d="M503.804,73.143H10.089C5.036,73.143,0,76.623,0,81.672V429.1c0,5.049,5.036,9.757,10.089,9.757h493.714&#10;&#9;&#9;&#9;c5.054,0,8.196-4.708,8.196-9.757V81.672C512,76.623,508.857,73.143,503.804,73.143z M493.714,420.571H18.286v-42.542&#10;&#9;&#9;&#9;L174.187,222.6l140.058,139.821c3.571,3.571,9.475,3.571,13.047,0l84.882-85.295l81.54,73.759V420.571z M493.714,326.288&#10;&#9;&#9;&#9;l-75.696-68.554c-3.607-3.258-8.915-3.112-12.344,0.331l-84.846,84.963l-139.761-139.82c-3.571-3.571-9.801-3.571-13.373,0&#10;&#9;&#9;&#9;L18.286,352.172V91.429h475.429V326.288z"/>
	</g>
</g>
<g>
	<g>
		<path d="M339.232,136.529c-30.25,0-54.857,24.607-54.857,54.857c0,30.251,24.607,54.857,54.857,54.857&#10;&#9;&#9;&#9;c30.25,0,54.857-24.606,54.857-54.857C394.089,161.136,369.482,136.529,339.232,136.529z M339.232,227.957&#10;&#9;&#9;&#9;c-20.17,0-36.571-16.406-36.571-36.571c0-20.165,16.402-36.571,36.571-36.571c20.17,0,36.571,16.406,36.571,36.571&#10;&#9;&#9;&#9;C375.804,211.551,359.402,227.957,339.232,227.957z"/>
	</g>
</g>
</svg>